# xmcd
#
# Track frame offsets:
#	150
#	20200
#	43447
#	71287
#	98797
#	123082
#	145752
#	165902
#	196982
#	223520
#	256777
#
# Disc length: 3793 seconds
#
# Revision: 1
# Processed by: cddbd v1.5.1PL0 Copyright (c) Steve Scherf et al.
# Submitted via: CDex 1.50Beta5
#
DISCID=950ecf0b
DTITLE=ウー・ファン - 心声-Voice of My Heart-
DYEAR=2003
DGENRE=New Age
TTITLE0=心声
TTITLE1=Wings of the heart
TTITLE2=花の源
TTITLE3=永遠の道
TTITLE4=彩雲追月
TTITLE5=春よ、来い
TTITLE6=Asian Dream
TTITLE7=緑の小径に鳥は歌い
TTITLE8=光の中へ
TTITLE9=心声(Orchestra Ver.)
TTITLE10=香格里拉〜シャングリラ〜
EXTD=
EXTT0=
EXTT1=
EXTT2=
EXTT3=
EXTT4=
EXTT5=
EXTT6=
EXTT7=
EXTT8=
EXTT9=
EXTT10=
PLAYORDER=
